<?xml version="1.0" standalone="no"?>
<!DOCTYPE svg PUBLIC "-//W3C//DTD SVG 20010904//EN"
 "http://www.w3.org/TR/2001/REC-SVG-20010904/DTD/svg10.dtd">
<svg version="1.0" xmlns="http://www.w3.org/2000/svg"
 width="281.000000pt" height="281.000000pt" viewBox="0 0 281.000000 281.000000"
 preserveAspectRatio="xMidYMid meet">
<metadata>
Created by potrace 1.11, written by Peter Selinger 2001-2013
</metadata>
<g transform="translate(0.000000,281.000000) scale(0.100000,-0.100000)"
fill="#000000" stroke="none">
<path d="M70 2574 c-30 -25 -54 -48 -53 -53 1 -5 82 -110 179 -233 97 -122
202 -257 235 -299 32 -42 65 -84 73 -92 11 -11 12 -16 3 -19 -6 -2 -99 -4
-204 -3 l-193 1 0 -848 0 -848 1295 0 1295 0 0 848 0 848 -204 -1 c-135 0
-202 3 -197 10 4 5 115 147 246 315 131 168 242 310 247 316 5 7 -13 28 -51
57 l-58 46 -25 -27 c-14 -15 -56 -67 -94 -117 -38 -49 -75 -97 -81 -105 -7 -8
-94 -118 -193 -245 -99 -126 -189 -234 -198 -240 -12 -6 -259 -9 -693 -9 -371
1 -677 2 -681 3 -3 1 -35 38 -70 84 -147 189 -509 647 -516 651 -4 2 -32 -16
-62 -40z m2490 -1546 l0 -708 -1155 0 -1155 0 0 708 0 707 1155 0 1155 0 0
-707z"/>
<path d="M743 1321 c-95 -43 -129 -173 -69 -260 101 -146 329 -77 329 99 1
133 -136 217 -260 161z"/>
<path d="M1898 1317 c-88 -54 -117 -152 -71 -242 56 -107 206 -127 289 -38 64
68 67 179 6 246 -52 58 -159 74 -224 34z"/>
<path d="M868 688 c-6 -19 -2 -188 5 -194 3 -3 235 -7 516 -7 l511 -2 1 35 c0
19 1 68 2 108 l2 72 -516 0 c-405 0 -518 -3 -521 -12z"/>
</g>
</svg>
